<?xml version="1.0"?>
<svg width="187" height="36" xmlns="http://www.w3.org/2000/svg" xmlns:svg="http://www.w3.org/2000/svg">
 <g class="layer">
  <title>Layer 1</title>
  <path d="m58.61,15.82c-0.6,-0.71 -1.31,-1.42 -2.13,-1.83c-1.21,-0.6 -2.53,-1.01 -3.95,-1.01c-1.72,0 -3.14,0.41 -4.46,1.12c-1.32,0.71 -2.33,1.72 -3.15,3.04c-0.81,1.32 -1.11,2.84 -1.11,4.66c0,1.73 0.4,3.35 1.11,4.67c0.82,1.32 1.83,2.33 3.15,3.14c1.32,0.71 2.84,1.12 4.46,1.12c1.52,0 2.84,-0.31 4.06,-1.02c0.81,-0.5 1.52,-1.11 2.13,-1.92l0,2.73l3.04,0l0,-24.23l-3.15,0l0,9.53zm-0.71,9.23c-0.5,0.91 -1.21,1.62 -2.13,2.13c-0.91,0.5 -1.82,0.71 -2.94,0.71c-1.11,0 -2.13,-0.21 -2.94,-0.71c-0.91,-0.51 -1.52,-1.22 -2.13,-2.13c-0.5,-0.92 -0.81,-2.03 -0.81,-3.25c0,-1.21 0.31,-2.33 0.81,-3.24c0.51,-0.92 1.22,-1.63 2.13,-2.13c0.92,-0.51 1.83,-0.71 2.94,-0.71c1.12,0 2.03,0.2 2.94,0.71c0.92,0.5 1.63,1.21 2.13,2.13c0.51,0.91 0.82,1.92 0.82,3.24c0,1.32 -0.31,2.33 -0.82,3.25z" fill="#000000" id="svg_1"/>
  <path d="m78.29,14.2c-1.32,-0.71 -2.74,-1.12 -4.46,-1.12c-1.63,0 -3.15,0.41 -4.47,1.12c-1.31,0.71 -2.33,1.82 -3.14,3.14c-0.71,1.32 -1.11,2.84 -1.11,4.56c0,1.73 0.4,3.25 1.11,4.57c0.81,1.32 1.83,2.33 3.25,3.14c1.42,0.81 3.04,1.12 4.86,1.12c1.42,0 2.74,-0.21 3.86,-0.71c1.11,-0.51 2.13,-1.22 2.94,-2.13l-1.73,-2.03c-0.6,0.71 -1.31,1.22 -2.23,1.52c-0.81,0.31 -1.72,0.51 -2.84,0.51c-1.21,0 -2.33,-0.2 -3.24,-0.71c-0.91,-0.51 -1.73,-1.22 -2.23,-2.13c-0.41,-0.71 -0.61,-1.42 -0.71,-2.23l13.99,0c0,-0.1 0,-0.31 0,-0.51c0,-0.2 0,-0.3 0,-0.51c0,-1.82 -0.4,-3.34 -1.11,-4.66c-0.41,-1.22 -1.42,-2.23 -2.74,-2.94zm-7.3,2.23c0.81,-0.51 1.82,-0.71 2.94,-0.71c1.11,0 2.13,0.2 2.94,0.71c0.81,0.51 1.52,1.22 1.93,2.03c0.4,0.71 0.6,1.42 0.6,2.23l-11.15,0c0.1,-0.81 0.3,-1.52 0.71,-2.13c0.51,-0.91 1.11,-1.62 2.03,-2.13z" fill="#000000" id="svg_2"/>
  <path d="m100.39,13.18l-3.14,0l0,17.24l3.14,0l0,-17.24z" fill="#000000" id="svg_3"/>
  <path d="m91.88,6.08c-1.83,0 -3.25,0.51 -4.26,1.53c-1.02,1.01 -1.52,2.33 -1.52,4.05l0,1.52l-2.94,0l0,2.54l2.94,0l0,14.7l3.14,0l0,-14.6l4.97,0l0,-2.64l-5.07,0l0,-1.52c0,-1.01 0.2,-1.72 0.71,-2.23c0.51,-0.51 1.22,-0.81 2.13,-0.81c0.4,0 0.91,0.1 1.32,0.2c0.4,0.1 0.81,0.31 1.11,0.61l1.02,-2.33c-0.41,-0.31 -0.92,-0.61 -1.63,-0.81c-0.6,-0.1 -1.21,-0.21 -1.92,-0.21z" fill="#000000" id="svg_4"/>
  <path d="m109.92,16.53c0.92,-0.51 1.93,-0.71 3.05,-0.71c0.91,0 1.82,0.2 2.63,0.61c0.81,0.4 1.52,1.01 2.03,1.82l2.33,-1.52c-0.71,-1.21 -1.62,-2.13 -2.84,-2.74c-1.21,-0.6 -2.63,-0.91 -4.15,-0.91c-1.73,0 -3.35,0.41 -4.67,1.12c-1.42,0.71 -2.43,1.82 -3.24,3.14c-0.81,1.32 -1.22,2.84 -1.22,4.56c0,1.73 0.41,3.25 1.22,4.57c0.81,1.32 1.82,2.33 3.24,3.14c1.42,0.81 2.94,1.12 4.67,1.12c1.52,0 2.94,-0.31 4.15,-0.92c1.22,-0.6 2.13,-1.52 2.84,-2.73l-2.33,-1.52c-0.61,0.81 -1.22,1.52 -2.03,1.82c-0.81,0.41 -1.72,0.61 -2.63,0.61c-1.12,0 -2.13,-0.2 -3.05,-0.71c-0.91,-0.51 -1.62,-1.22 -2.12,-2.13c-0.51,-0.91 -0.82,-2.03 -0.82,-3.25c0,-1.21 0.31,-2.33 0.82,-3.24c0.5,-0.91 1.21,-1.62 2.12,-2.13z" fill="#000000" id="svg_5"/>
  <path d="m135.68,13.89c-1.11,-0.5 -2.33,-0.81 -3.75,-0.81c-1.52,0 -2.94,0.31 -4.16,0.91c-0.81,0.41 -1.42,1.02 -2.02,1.73l0,-9.43l-3.15,0l0,24.23l3.15,0l0,-8.92c0,-1.22 0.2,-2.33 0.7,-3.14c0.41,-0.82 1.12,-1.53 1.93,-1.93c0.81,-0.41 1.83,-0.61 2.94,-0.61c1.52,0 2.64,0.41 3.45,1.32c0.81,0.81 1.22,2.13 1.22,3.75l0,9.63l3.14,0l0,-9.93c0,-1.73 -0.3,-3.15 -0.91,-4.16c-0.71,-1.32 -1.52,-2.13 -2.54,-2.64z" fill="#000000" id="svg_6"/>
  <path d="m149.78,13.08c-1.42,0 -2.64,0.21 -3.95,0.61c-1.22,0.41 -2.34,0.91 -3.25,1.62l1.32,2.34c0.71,-0.61 1.52,-1.02 2.43,-1.32c1.02,-0.31 2.03,-0.51 3.05,-0.51c1.52,0 2.73,0.41 3.44,1.12c0.81,0.71 1.12,1.72 1.12,3.04l0,0.61l-4.97,0c-1.72,0 -3.04,0.2 -4.06,0.71c-1.01,0.5 -1.72,1.11 -2.23,1.82c-0.4,0.81 -0.71,1.62 -0.71,2.54c0,1.01 0.31,1.82 0.81,2.63c0.51,0.81 1.22,1.42 2.23,1.83c1.02,0.4 2.13,0.61 3.35,0.61c1.62,0 2.94,-0.31 3.96,-0.92c0.71,-0.4 1.31,-0.91 1.72,-1.62l0,2.33l2.94,0l0,-10.44c0,-2.33 -0.61,-4.16 -1.93,-5.27c-1.01,-1.22 -2.83,-1.73 -5.27,-1.73zm2.44,14.4c-0.92,0.51 -1.93,0.81 -3.05,0.81c-1.21,0 -2.13,-0.3 -2.84,-0.81c-0.71,-0.5 -1.01,-1.21 -1.01,-2.03c0,-0.71 0.3,-1.42 0.81,-1.92c0.51,-0.51 1.62,-0.81 3.14,-0.81l4.87,0l0,2.43c-0.51,1.01 -1.11,1.83 -1.92,2.33z" fill="#000000" id="svg_7"/>
  <path d="m164.69,13.18l-3.15,0l0,17.24l3.15,0l0,-17.24z" fill="#000000" id="svg_8"/>
  <path d="m184.56,16.33c-0.61,-1.12 -1.42,-1.93 -2.53,-2.44c-1.12,-0.5 -2.34,-0.81 -3.75,-0.81c-1.53,0 -2.95,0.31 -4.16,0.92c-0.92,0.5 -1.62,1.11 -2.13,1.82l0,-2.64l-3.05,0l0,17.24l3.15,0l0,-8.92c0,-1.22 0.2,-2.33 0.71,-3.14c0.4,-0.82 1.11,-1.53 1.93,-1.93c0.81,-0.41 1.82,-0.61 2.94,-0.61c1.52,0 2.63,0.41 3.44,1.32c0.82,0.81 1.22,2.13 1.22,3.75l0,9.63l3.14,0l0,-9.93c0,-1.73 -0.3,-3.15 -0.91,-4.26z" fill="#000000" id="svg_9"/>
  <path d="m22.11,31.64l0,-27.08c5.78,1.73 10.04,7.1 10.04,13.49c0,6.39 -4.26,11.76 -10.04,13.59zm-4.06,-31.64l0,15.21l-2.33,-2.33l-0.31,-5.78l2.44,-7.1c-1.52,0 -3.04,0.2 -4.46,0.61l-1.12,3.45l-3.24,-1.63c-1.32,0.82 -2.54,1.63 -3.66,2.74l6.09,3.04l0.2,3.45l-3.45,-0.2l-3.04,-6.09c-1.01,1.12 -1.92,2.24 -2.74,3.55l1.63,3.25l-3.45,1.11c-0.41,1.42 -0.61,2.95 -0.61,4.47l7.2,-2.44l5.78,0.31l2.33,2.33l-2.33,2.33l-5.78,0.31l-7.2,-2.34c0,1.52 0.2,3.05 0.61,4.47l3.45,1.11l-1.63,3.25c0.71,1.31 1.63,2.53 2.74,3.55l3.04,-6.09l3.45,-0.2l-0.2,3.45l-6.09,3.04c1.12,1.01 2.24,1.92 3.55,2.74l3.25,-1.63l1.11,3.45c1.42,0.41 2.95,0.61 4.47,0.61l-2.44,-7.2l0.31,-5.78l2.33,-2.33l0,15.31c10.04,0 18.15,-8.11 18.15,-18.15c0,-10.04 -8.01,-17.85 -18.05,-17.85z" fill="#FF00AF" id="svg_10"/>
  <path d="m138.02,4.06l-2.23,-3.76l-1.12,0l0,5.99l1.22,0l0,-3.55l1.82,2.94l0.61,0l1.73,-2.94l0,3.55l1.32,0l0,-5.99l-1.22,0l-2.13,3.76z" fill="#000000" id="svg_11"/>
  <path d="m143.8,3.85l2.74,0l0,-1.11l-2.74,0l0,-1.32l3.14,0l0,-1.12l-4.46,0l0,5.99l4.56,0l0,-1.12l-3.24,0l0,-1.32z" fill="#000000" id="svg_12"/>
  <path d="m152.72,0.3l-5.17,0l0,1.12l1.93,0l0,4.87l1.32,0l0,-4.87l1.92,0l0,-1.12z" fill="#000000" id="svg_13"/>
  <path d="m154.65,0.3l-2.64,5.99l1.42,0l0.51,-1.32l2.74,0l0.5,1.32l1.42,0l-2.63,-5.88l-1.32,0l0,-0.11zm-0.2,3.65l0.91,-2.23l0.91,2.23l-1.82,0z" fill="#000000" id="svg_14"/>
  <path d="m165.09,3.25c-0.2,-0.11 -0.4,-0.21 -0.71,-0.31c-0.3,-0.1 -0.5,-0.1 -0.7,-0.2c-0.21,-0.1 -0.51,-0.1 -0.71,-0.2c-0.21,-0.11 -0.41,-0.11 -0.51,-0.21c-0.1,-0.1 -0.2,-0.2 -0.2,-0.4c0,-0.1 0,-0.21 0.1,-0.31c0.1,-0.1 0.2,-0.2 0.4,-0.2c0.21,0 0.41,-0.1 0.61,-0.1c0.31,0 0.51,0 0.81,0.1c0.31,0.1 0.51,0.2 0.81,0.3l0.41,-1.01c-0.31,-0.2 -0.61,-0.3 -0.91,-0.41c-0.41,-0.1 -0.71,-0.1 -1.12,-0.1c-0.61,0 -1.01,0.1 -1.42,0.21c-0.4,0.2 -0.61,0.4 -0.81,0.71c-0.2,0.3 -0.3,0.6 -0.3,0.91c0,0.3 0.1,0.61 0.2,0.81c0.1,0.2 0.3,0.41 0.51,0.51c0.2,0.1 0.4,0.2 0.71,0.3c0.3,0.1 0.5,0.1 0.71,0.2c0.2,0.1 0.5,0.1 0.71,0.21c0.2,0.1 0.4,0.1 0.5,0.2c0.1,0.1 0.2,0.2 0.2,0.4c0,0.11 0,0.21 -0.1,0.31c-0.1,0.1 -0.2,0.2 -0.4,0.2c-0.2,0.1 -0.41,0.1 -0.61,0.1c-0.41,0 -0.71,-0.1 -1.01,-0.2c-0.31,-0.1 -0.61,-0.3 -0.92,-0.41l-0.5,1.02c0.3,0.2 0.6,0.4 1.01,0.51c0.41,0.1 0.91,0.2 1.32,0.2c0.61,0 1.01,-0.1 1.42,-0.31c0.4,-0.2 0.61,-0.4 0.81,-0.71c0.2,-0.3 0.3,-0.6 0.3,-0.91c0,-0.3 -0.1,-0.61 -0.2,-0.81c0,-0.1 -0.2,-0.2 -0.41,-0.4z" fill="#000000" id="svg_15"/>
  <path d="m168.13,1.93c0.21,-0.21 0.41,-0.31 0.61,-0.41c0.2,-0.1 0.51,-0.1 0.81,-0.1c0.31,0 0.61,0.1 0.82,0.2c0.2,0.1 0.5,0.31 0.7,0.51l0.92,-0.81c-0.31,-0.31 -0.61,-0.61 -1.02,-0.81c-0.4,-0.21 -0.91,-0.31 -1.42,-0.31c-0.5,0 -0.91,0.1 -1.31,0.21c-0.41,0.1 -0.71,0.4 -1.02,0.6c-0.3,0.31 -0.51,0.61 -0.71,1.02c-0.2,0.4 -0.2,0.81 -0.2,1.22c0,0.4 0.1,0.81 0.2,1.21c0.2,0.41 0.41,0.71 0.71,1.02c0.31,0.3 0.61,0.5 1.02,0.6c0.4,0.11 0.81,0.21 1.31,0.21c0.51,0 1.02,-0.1 1.42,-0.31c0.41,-0.2 0.81,-0.4 1.02,-0.81l-0.92,-0.81c-0.2,0.2 -0.4,0.41 -0.7,0.51c-0.21,0.1 -0.51,0.2 -0.82,0.2c-0.3,0 -0.5,0 -0.81,-0.1c-0.3,-0.1 -0.4,-0.2 -0.61,-0.41c-0.2,-0.2 -0.3,-0.4 -0.4,-0.61c-0.1,-0.2 -0.1,-0.5 -0.1,-0.81c0,-0.3 0,-0.5 0.1,-0.81c0.1,-0.3 0.3,-0.2 0.4,-0.4z" fill="#000000" id="svg_16"/>
  <path d="m174.73,0.3l-2.64,5.89l1.42,0l0.51,-1.32l2.74,0l0.51,1.32l1.42,0l-2.64,-5.89l-1.32,0zm-0.3,3.65l0.91,-2.23l0.91,2.23l-1.82,0z" fill="#000000" id="svg_17"/>
  <path d="m183.35,0.3l0,3.65l-2.94,-3.65l-1.22,0l0,5.99l1.42,0l0,-3.65l2.94,3.65l1.12,0l0,-5.99l-1.32,0z" fill="#000000" id="svg_18"/>
 </g>
</svg>
